<svg width="12" height="12" viewBox="0 0 12 12" fill="none" xmlns="http://www.w3.org/2000/svg">
<circle cx="5.99996" cy="6.00008" r="5.33333" stroke="#6C757B"/>
<path d="M6.58329 3.08346C6.58329 3.40562 6.32213 3.66679 5.99996 3.66679C5.67779 3.66679 5.41663 3.40562 5.41663 3.08346C5.41663 2.76129 5.67779 2.50012 5.99996 2.50012C6.32213 2.50012 6.58329 2.76129 6.58329 3.08346Z" fill="#6C757B"/>
<path fill-rule="evenodd" clip-rule="evenodd" d="M4.97913 4.83337C4.97913 4.59175 5.175 4.39587 5.41663 4.39587H5.99996C6.24158 4.39587 6.43746 4.59175 6.43746 4.83337V8.91671C6.43746 9.15833 6.24158 9.35421 5.99996 9.35421C5.75833 9.35421 5.56246 9.15833 5.56246 8.91671V5.27087H5.41663C5.175 5.27087 4.97913 5.075 4.97913 4.83337Z" fill="#6C757B"/>
</svg>
