<svg width="12" height="12" viewBox="0 0 12 12" fill="none" xmlns="http://www.w3.org/2000/svg">
<circle cx="5.99996" cy="6.00008" r="5.33333" stroke="#94A1AC"/>
<path d="M6.58329 3.08333C6.58329 3.4055 6.32213 3.66667 5.99996 3.66667C5.67779 3.66667 5.41663 3.4055 5.41663 3.08333C5.41663 2.76117 5.67779 2.5 5.99996 2.5C6.32213 2.5 6.58329 2.76117 6.58329 3.08333Z" fill="#94A1AC"/>
<path fill-rule="evenodd" clip-rule="evenodd" d="M4.97913 4.8335C4.97913 4.59187 5.175 4.396 5.41663 4.396H5.99996C6.24158 4.396 6.43746 4.59187 6.43746 4.8335V8.91683C6.43746 9.15845 6.24158 9.35433 5.99996 9.35433C5.75833 9.35433 5.56246 9.15845 5.56246 8.91683V5.271H5.41663C5.175 5.271 4.97913 5.07512 4.97913 4.8335Z" fill="#94A1AC"/>
</svg>
