<svg width="10" height="9" viewBox="0 0 10 9" fill="none" xmlns="http://www.w3.org/2000/svg">
<path fill-rule="evenodd" clip-rule="evenodd" d="M7.9015 0.394966C7.37488 -0.131655 6.52106 -0.131655 5.99444 0.394966L5.14901 1.24039C5.18188 1.30677 5.21742 1.3766 5.25555 1.44902C5.51211 1.93635 5.87219 2.51465 6.30378 2.94624C6.73538 3.37783 7.31368 3.73792 7.80101 3.99448C7.87341 4.03259 7.94323 4.06813 8.0096 4.10099L8.85503 3.25556C9.38165 2.72894 9.38165 1.87512 8.85503 1.3485L7.9015 0.394966ZM7.35968 4.75091C6.8453 4.47763 6.19578 4.07568 5.68507 3.56496C5.17434 3.05423 4.77237 2.4047 4.4991 1.89031L1.17443 5.21498C0.968113 5.42129 0.834279 5.68896 0.793016 5.9778L0.506957 7.98022C0.443388 8.4252 0.824801 8.80661 1.26978 8.74304L3.2722 8.45698C3.56104 8.41572 3.82871 8.28189 4.03502 8.07557L7.35968 4.75091Z" fill="white"/>
</svg>
