<svg width="6" height="6" viewBox="0 0 6 6" fill="none" xmlns="http://www.w3.org/2000/svg">
<path fill-rule="evenodd" clip-rule="evenodd" d="M3.70712 3.00012L5.85362 0.853625C6.04912 0.658125 6.04912 0.342125 5.85362 0.146625C5.65812 -0.048875 5.34213 -0.048875 5.14663 0.146625L3.00012 2.29312L0.853625 0.146625C0.658125 -0.048875 0.342125 -0.048875 0.146625 0.146625C-0.048875 0.342125 -0.048875 0.658125 0.146625 0.853625L2.29312 3.00012L0.146625 5.14663C-0.048875 5.34213 -0.048875 5.65812 0.146625 5.85362C0.244125 5.95112 0.372125 6.00012 0.500125 6.00012C0.628125 6.00012 0.756125 5.95112 0.853625 5.85362L3.00012 3.70712L5.14663 5.85362C5.24413 5.95112 5.37212 6.00012 5.50012 6.00012C5.62812 6.00012 5.75612 5.95112 5.85362 5.85362C6.04912 5.65812 6.04912 5.34213 5.85362 5.14663L3.70712 3.00012Z" fill="white"/>
</svg>
