<svg width="12" height="13" viewBox="0 0 12 13" fill="none" xmlns="http://www.w3.org/2000/svg">
<path d="M6.70503 10.8949L6.00003 11.3499C5.34503 11.7549 4.43503 11.2999 4.43503 10.4899V7.81488C4.43503 7.45988 4.23503 7.00488 4.03003 6.75488L2.11003 4.73486C1.85503 4.47986 1.65503 4.02988 1.65503 3.72488V2.56488C1.65503 1.95988 2.11003 1.50488 2.66503 1.50488H9.33503C9.89003 1.50488 10.345 1.95989 10.345 2.51489V3.62488C10.345 4.02988 10.09 4.53488 9.84003 4.78488" stroke="#55647D" stroke-miterlimit="10" stroke-linecap="round" stroke-linejoin="round"/>
<path d="M10.8149 7.875C10.8149 8.32 10.6899 8.74001 10.4699 9.10001C10.0599 9.79001 9.30494 10.25 8.43994 10.25C7.57494 10.25 6.81994 9.78501 6.40994 9.10001C6.18994 8.74501 6.06494 8.32 6.06494 7.875C6.06494 6.565 7.12994 5.5 8.43994 5.5C9.74994 5.5 10.8149 6.565 10.8149 7.875Z" stroke="#55647D" stroke-miterlimit="10" stroke-linecap="round" stroke-linejoin="round"/>
<path d="M9.07507 8.495L7.82007 7.23999" stroke="#55647D" stroke-miterlimit="10" stroke-linecap="round" stroke-linejoin="round"/>
<path d="M9.06506 7.25488L7.81006 8.50989" stroke="#55647D" stroke-miterlimit="10" stroke-linecap="round" stroke-linejoin="round"/>
<path d="M10.345 2.51001V3.62C10.345 4.025 10.09 4.53 9.84003 4.785L8.96003 5.56C8.79503 5.52 8.62003 5.5 8.44003 5.5C7.13003 5.5 6.06503 6.565 6.06503 7.875C6.06503 8.32 6.19003 8.74001 6.41003 9.10001C6.59503 9.41001 6.85003 9.67499 7.16003 9.86499V10.035C7.16003 10.34 6.96003 10.745 6.70503 10.895L6.00003 11.35C5.34503 11.755 4.43503 11.3 4.43503 10.49V7.815C4.43503 7.46 4.23003 7.005 4.03003 6.755L2.11003 4.73499C1.86003 4.47999 1.65503 4.02501 1.65503 3.72501V2.56C1.65503 1.955 2.11003 1.5 2.66503 1.5H9.33503C9.89003 1.5 10.345 1.95501 10.345 2.51001Z" stroke="#55647D" stroke-miterlimit="10" stroke-linecap="round" stroke-linejoin="round"/>
</svg>
