<svg width="11" height="11" viewBox="0 0 11 11" fill="none" xmlns="http://www.w3.org/2000/svg">
<path d="M2.24996 1.875H7.74996C8.20829 1.875 8.58329 2.25 8.58329 2.70833V3.625C8.58329 3.95833 8.37496 4.375 8.16663 4.58333L6.37496 6.16667C6.12496 6.375 5.95829 6.79167 5.95829 7.125V8.91667C5.95829 9.16667 5.79163 9.5 5.58329 9.625L4.99996 10C4.45829 10.3333 3.70829 9.95833 3.70829 9.29167V7.08333C3.70829 6.79167 3.54163 6.41667 3.37496 6.20833L1.79163 4.54167C1.58329 4.33333 1.41663 3.95833 1.41663 3.70833V2.75C1.41663 2.25 1.79163 1.875 2.24996 1.875Z" stroke="#1471FF" stroke-miterlimit="10" stroke-linecap="round" stroke-linejoin="round"/>
<rect x="6.35" y="0.35" width="4.3" height="4.3" rx="2.15" fill="#1471FF" stroke="#D5E1F4" stroke-width="0.7"/>
</svg>
