<svg width="6" height="7" viewBox="0 0 6 7" fill="none" xmlns="http://www.w3.org/2000/svg">
<path fill-rule="evenodd" clip-rule="evenodd" d="M3.70712 3.49988L5.85362 1.35338C6.04912 1.15788 6.04912 0.841881 5.85362 0.646381C5.65812 0.450881 5.34212 0.450881 5.14663 0.646381L3.00012 2.79288L0.853625 0.646381C0.658125 0.450881 0.342125 0.450881 0.146625 0.646381C-0.048875 0.841881 -0.048875 1.15788 0.146625 1.35338L2.29312 3.49988L0.146625 5.64638C-0.048875 5.84188 -0.048875 6.15788 0.146625 6.35338C0.244125 6.45088 0.372125 6.49988 0.500125 6.49988C0.628125 6.49988 0.756125 6.45088 0.853625 6.35338L3.00012 4.20688L5.14663 6.35338C5.24412 6.45088 5.37213 6.49988 5.50012 6.49988C5.62812 6.49988 5.75612 6.45088 5.85362 6.35338C6.04912 6.15788 6.04912 5.84188 5.85362 5.64638L3.70712 3.49988Z" fill="white"/>
</svg>
