<svg width="10" height="10" viewBox="0 0 10 10" fill="none" xmlns="http://www.w3.org/2000/svg">
<path fill-rule="evenodd" clip-rule="evenodd" d="M1.04652 8.38544C0.851255 8.5807 0.851255 8.89728 1.04652 9.09254C1.24178 9.28781 1.55836 9.28781 1.75362 9.09254L5.06969 5.77648L8.38576 9.09256C8.58102 9.28782 8.8976 9.28782 9.09287 9.09256C9.28813 8.89729 9.28813 8.58071 9.09287 8.38545L5.77679 5.06938L9.09287 1.7533C9.28813 1.55804 9.28813 1.24146 9.09287 1.0462C8.8976 0.850934 8.58102 0.850934 8.38576 1.0462L5.06969 4.36227L1.75362 1.04621C1.55836 0.850945 1.24178 0.850945 1.04652 1.04621C0.851255 1.24147 0.851255 1.55805 1.04652 1.75331L4.36258 5.06938L1.04652 8.38544Z" fill="#94A1AC"/>
</svg>
