<svg width="123" height="27" viewBox="0 0 123 27" fill="none" xmlns="http://www.w3.org/2000/svg">
<path d="M24.2045 9.27273H26.8466L28.5511 12.8182H28.6193L30.3239 9.27273H32.9659L29.7614 15.2557V18H27.4091V15.2557L24.2045 9.27273ZM42.4235 13.6364C42.4235 14.608 42.2345 15.4276 41.8567 16.0952C41.4788 16.7599 40.9689 17.2642 40.3269 17.608C39.6848 17.9489 38.9689 18.1193 38.1791 18.1193C37.3837 18.1193 36.6649 17.9474 36.0229 17.6037C35.3837 17.2571 34.8752 16.7514 34.4973 16.0866C34.1223 15.419 33.9348 14.6023 33.9348 13.6364C33.9348 12.6648 34.1223 11.8466 34.4973 11.1818C34.8752 10.5142 35.3837 10.0099 36.0229 9.66903C36.6649 9.32528 37.3837 9.15341 38.1791 9.15341C38.9689 9.15341 39.6848 9.32528 40.3269 9.66903C40.9689 10.0099 41.4788 10.5142 41.8567 11.1818C42.2345 11.8466 42.4235 12.6648 42.4235 13.6364ZM39.986 13.6364C39.986 13.1136 39.9163 12.6733 39.7771 12.3153C39.6408 11.9545 39.4377 11.6818 39.1678 11.4972C38.9007 11.3097 38.5712 11.2159 38.1791 11.2159C37.7871 11.2159 37.4561 11.3097 37.1862 11.4972C36.9192 11.6818 36.7161 11.9545 36.5769 12.3153C36.4405 12.6733 36.3723 13.1136 36.3723 13.6364C36.3723 14.1591 36.4405 14.6009 36.5769 14.9616C36.7161 15.3196 36.9192 15.5923 37.1862 15.7798C37.4561 15.9645 37.7871 16.0568 38.1791 16.0568C38.5712 16.0568 38.9007 15.9645 39.1678 15.7798C39.4377 15.5923 39.6408 15.3196 39.7771 14.9616C39.9163 14.6009 39.986 14.1591 39.986 13.6364ZM49.5245 9.27273H51.8938V14.8636C51.8938 15.5284 51.7347 16.1037 51.4165 16.5895C51.1012 17.0724 50.6608 17.446 50.0955 17.7102C49.5301 17.9716 48.8739 18.1023 48.1267 18.1023C47.3739 18.1023 46.7148 17.9716 46.1495 17.7102C45.5841 17.446 45.1438 17.0724 44.8284 16.5895C44.5159 16.1037 44.3597 15.5284 44.3597 14.8636V9.27273H46.729V14.6591C46.729 14.929 46.7887 15.1705 46.908 15.3835C47.0273 15.5937 47.1921 15.7585 47.4023 15.8778C47.6154 15.9972 47.8568 16.0568 48.1267 16.0568C48.3995 16.0568 48.6409 15.9972 48.8512 15.8778C49.0614 15.7585 49.2262 15.5937 49.3455 15.3835C49.4648 15.1705 49.5245 14.929 49.5245 14.6591V9.27273ZM53.8598 18V9.27273H57.6269C58.2746 9.27273 58.8414 9.39062 59.3272 9.62642C59.813 9.86222 60.1908 10.2017 60.4607 10.6449C60.7306 11.0881 60.8655 11.6193 60.8655 12.2386C60.8655 12.8636 60.7263 13.3906 60.4479 13.8196C60.1723 14.2486 59.7846 14.5724 59.2846 14.7912C58.7874 15.0099 58.2064 15.1193 57.5417 15.1193H55.2917V13.2784H57.0644C57.3428 13.2784 57.58 13.2443 57.776 13.1761C57.9749 13.1051 58.1269 12.9929 58.232 12.8395C58.34 12.6861 58.3939 12.4858 58.3939 12.2386C58.3939 11.9886 58.34 11.7855 58.232 11.6293C58.1269 11.4702 57.9749 11.3537 57.776 11.2798C57.58 11.2031 57.3428 11.1648 57.0644 11.1648H56.2292V18H53.8598ZM58.9735 13.9943L61.1553 18H58.5814L56.4508 13.9943H58.9735ZM62.7155 18V9.27273H65.0848V16.0909H68.6132V18H62.7155ZM78.5256 13.6364C78.5256 14.608 78.3367 15.4276 77.9589 16.0952C77.581 16.7599 77.0711 17.2642 76.429 17.608C75.787 17.9489 75.0711 18.1193 74.2813 18.1193C73.4859 18.1193 72.7671 17.9474 72.1251 17.6037C71.4859 17.2571 70.9773 16.7514 70.5995 16.0866C70.2245 15.419 70.037 14.6023 70.037 13.6364C70.037 12.6648 70.2245 11.8466 70.5995 11.1818C70.9773 10.5142 71.4859 10.0099 72.1251 9.66903C72.7671 9.32528 73.4859 9.15341 74.2813 9.15341C75.0711 9.15341 75.787 9.32528 76.429 9.66903C77.0711 10.0099 77.581 10.5142 77.9589 11.1818C78.3367 11.8466 78.5256 12.6648 78.5256 13.6364ZM76.0881 13.6364C76.0881 13.1136 76.0185 12.6733 75.8793 12.3153C75.743 11.9545 75.5398 11.6818 75.27 11.4972C75.0029 11.3097 74.6734 11.2159 74.2813 11.2159C73.8893 11.2159 73.5583 11.3097 73.2884 11.4972C73.0214 11.6818 72.8183 11.9545 72.679 12.3153C72.5427 12.6733 72.4745 13.1136 72.4745 13.6364C72.4745 14.1591 72.5427 14.6009 72.679 14.9616C72.8183 15.3196 73.0214 15.5923 73.2884 15.7798C73.5583 15.9645 73.8893 16.0568 74.2813 16.0568C74.6734 16.0568 75.0029 15.9645 75.27 15.7798C75.5398 15.5923 75.743 15.3196 75.8793 14.9616C76.0185 14.6009 76.0881 14.1591 76.0881 13.6364ZM86.1295 12.1534C86.0926 12.0028 86.0343 11.8707 85.9548 11.7571C85.8752 11.6406 85.7758 11.5426 85.6565 11.4631C85.54 11.3807 85.4036 11.3196 85.2474 11.2798C85.094 11.2372 84.9249 11.2159 84.7403 11.2159C84.3426 11.2159 84.0031 11.3111 83.7218 11.5014C83.4434 11.6918 83.2303 11.9659 83.0826 12.3239C82.9377 12.6818 82.8653 13.1136 82.8653 13.6193C82.8653 14.1307 82.9349 14.5682 83.0741 14.9318C83.2133 15.2955 83.4207 15.5739 83.6963 15.767C83.9718 15.9602 84.3141 16.0568 84.7232 16.0568C85.084 16.0568 85.3838 16.0043 85.6224 15.8991C85.8639 15.794 86.0443 15.6449 86.1636 15.4517C86.2829 15.2585 86.3426 15.0312 86.3426 14.7699L86.7516 14.8125H84.7573V13.125H88.6266V14.3352C88.6266 15.1307 88.4576 15.8111 88.1195 16.3764C87.7843 16.9389 87.3213 17.3707 86.7303 17.6719C86.1423 17.9702 85.4676 18.1193 84.7062 18.1193C83.8568 18.1193 83.111 17.9389 82.469 17.5781C81.8269 17.2173 81.3255 16.7031 80.9647 16.0355C80.6068 15.3679 80.4278 14.5739 80.4278 13.6534C80.4278 12.9318 80.5372 12.2926 80.7559 11.7358C80.9775 11.179 81.2843 10.7088 81.6764 10.3253C82.0684 9.93892 82.5215 9.64773 83.0357 9.4517C83.5499 9.25284 84.1011 9.15341 84.6891 9.15341C85.2062 9.15341 85.6863 9.22727 86.1295 9.375C86.5755 9.51989 86.969 9.72727 87.3099 9.99716C87.6536 10.2642 87.9306 10.581 88.1409 10.9474C88.3511 11.3139 88.4789 11.7159 88.5244 12.1534H86.1295ZM99.0259 13.6364C99.0259 14.608 98.837 15.4276 98.4592 16.0952C98.0813 16.7599 97.5714 17.2642 96.9294 17.608C96.2873 17.9489 95.5714 18.1193 94.7816 18.1193C93.9862 18.1193 93.2674 17.9474 92.6254 17.6037C91.9862 17.2571 91.4777 16.7514 91.0998 16.0866C90.7248 15.419 90.5373 14.6023 90.5373 13.6364C90.5373 12.6648 90.7248 11.8466 91.0998 11.1818C91.4777 10.5142 91.9862 10.0099 92.6254 9.66903C93.2674 9.32528 93.9862 9.15341 94.7816 9.15341C95.5714 9.15341 96.2873 9.32528 96.9294 9.66903C97.5714 10.0099 98.0813 10.5142 98.4592 11.1818C98.837 11.8466 99.0259 12.6648 99.0259 13.6364ZM96.5884 13.6364C96.5884 13.1136 96.5188 12.6733 96.3796 12.3153C96.2433 11.9545 96.0402 11.6818 95.7703 11.4972C95.5032 11.3097 95.1737 11.2159 94.7816 11.2159C94.3896 11.2159 94.0586 11.3097 93.7887 11.4972C93.5217 11.6818 93.3186 11.9545 93.1794 12.3153C93.043 12.6733 92.9748 13.1136 92.9748 13.6364C92.9748 14.1591 93.043 14.6009 93.1794 14.9616C93.3186 15.3196 93.5217 15.5923 93.7887 15.7798C94.0586 15.9645 94.3896 16.0568 94.7816 16.0568C95.1737 16.0568 95.5032 15.9645 95.7703 15.7798C96.0402 15.5923 96.2433 15.3196 96.3796 14.9616C96.5188 14.6009 96.5884 14.1591 96.5884 13.6364Z" fill="white"/>
</svg>
