<svg width="8" height="8" viewBox="0 0 8 8" fill="none" xmlns="http://www.w3.org/2000/svg">
<path fill-rule="evenodd" clip-rule="evenodd" d="M4.63391 3.75016L7.31703 1.06703C7.56141 0.822656 7.56141 0.427656 7.31703 0.183281C7.07266 -0.0610938 6.67766 -0.0610938 6.43328 0.183281L3.75016 2.86641L1.06703 0.183281C0.822656 -0.0610938 0.427656 -0.0610938 0.183281 0.183281C-0.0610938 0.427656 -0.0610938 0.822656 0.183281 1.06703L2.86641 3.75016L0.183281 6.43328C-0.0610938 6.67766 -0.0610938 7.07266 0.183281 7.31703C0.305156 7.43891 0.465156 7.50016 0.625156 7.50016C0.785156 7.50016 0.945156 7.43891 1.06703 7.31703L3.75016 4.63391L6.43328 7.31703C6.55516 7.43891 6.71516 7.50016 6.87516 7.50016C7.03516 7.50016 7.19516 7.43891 7.31703 7.31703C7.56141 7.07266 7.56141 6.67766 7.31703 6.43328L4.63391 3.75016Z" fill="white"/>
</svg>
