<svg width="12" height="12" viewBox="0 0 12 12" fill="none" xmlns="http://www.w3.org/2000/svg">
<path fill-rule="evenodd" clip-rule="evenodd" d="M1.14657 10.3201C0.951307 10.5154 0.951307 10.832 1.14657 11.0272C1.34183 11.2225 1.65841 11.2225 1.85368 11.0272L6.08714 6.79377L10.3206 11.0273C10.5159 11.2225 10.8325 11.2225 11.0277 11.0273C11.223 10.832 11.223 10.5154 11.0277 10.3201L6.79425 6.08667L11.0277 1.85319C11.223 1.65793 11.223 1.34134 11.0277 1.14608C10.8325 0.950818 10.5159 0.950818 10.3206 1.14608L6.08714 5.37956L1.85368 1.14609C1.65841 0.950832 1.34183 0.950832 1.14657 1.14609C0.951307 1.34136 0.951307 1.65794 1.14657 1.8532L5.38003 6.08667L1.14657 10.3201Z" fill="#94A1AC"/>
<path d="M1.14657 11.0272L0.863725 11.3101L0.863726 11.3101L1.14657 11.0272ZM1.14657 10.3201L0.863726 10.0373L0.863725 10.0373L1.14657 10.3201ZM1.85368 11.0272L2.13652 11.3101H2.13652L1.85368 11.0272ZM6.08714 6.79377L6.36998 6.51093L6.08714 6.22809L5.8043 6.51093L6.08714 6.79377ZM6.79425 6.08667L6.51141 5.80382L6.22856 6.08667L6.51141 6.36951L6.79425 6.08667ZM11.0277 1.85319L11.3106 2.13603L11.0277 1.85319ZM11.0277 1.14608L10.7449 1.42892L10.7449 1.42892L11.0277 1.14608ZM10.3206 1.14608L10.6035 1.42892L10.6035 1.42892L10.3206 1.14608ZM6.08714 5.37956L5.8043 5.6624L6.08714 5.94525L6.36998 5.6624L6.08714 5.37956ZM1.85368 1.14609L2.13652 0.863251V0.863251L1.85368 1.14609ZM1.14657 1.14609L1.42941 1.42894L1.42941 1.42894L1.14657 1.14609ZM1.14657 1.8532L1.42941 1.57036L1.42941 1.57036L1.14657 1.8532ZM5.38003 6.08667L5.66288 6.36951L5.94572 6.08667L5.66288 5.80382L5.38003 6.08667ZM1.42941 10.7444C1.39036 10.7053 1.39036 10.642 1.42941 10.603L0.863725 10.0373C0.512254 10.3888 0.512254 10.9586 0.863725 11.3101L1.42941 10.7444ZM1.57083 10.7444C1.53178 10.7834 1.46846 10.7834 1.42941 10.7444L0.863726 11.3101C1.2152 11.6616 1.78505 11.6616 2.13652 11.3101L1.57083 10.7444ZM5.8043 6.51093L1.57083 10.7444L2.13652 11.3101L6.36998 7.07662L5.8043 6.51093ZM10.6035 10.7444L6.36998 6.51093L5.8043 7.07662L10.0378 11.3101L10.6035 10.7444ZM10.7449 10.7444C10.7058 10.7835 10.6425 10.7835 10.6035 10.7444L10.0378 11.3101C10.3893 11.6616 10.9591 11.6616 11.3106 11.3101L10.7449 10.7444ZM10.7449 10.603C10.7839 10.642 10.7839 10.7054 10.7449 10.7444L11.3106 11.3101C11.662 10.9586 11.662 10.3888 11.3106 10.0373L10.7449 10.603ZM6.51141 6.36951L10.7449 10.603L11.3106 10.0373L7.07709 5.80382L6.51141 6.36951ZM10.7449 1.57034L6.51141 5.80382L7.07709 6.36951L11.3106 2.13603L10.7449 1.57034ZM10.7449 1.42892C10.7839 1.46798 10.7839 1.53129 10.7449 1.57034L11.3106 2.13603C11.662 1.78456 11.662 1.21471 11.3106 0.863238L10.7449 1.42892ZM10.6035 1.42892C10.6425 1.38987 10.7058 1.38987 10.7449 1.42892L11.3106 0.863239C10.9591 0.511765 10.3892 0.511765 10.0378 0.863239L10.6035 1.42892ZM6.36998 5.6624L10.6035 1.42892L10.0378 0.863238L5.8043 5.09672L6.36998 5.6624ZM1.57083 1.42894L5.8043 5.6624L6.36998 5.09672L2.13652 0.863251L1.57083 1.42894ZM1.42941 1.42894C1.46846 1.38988 1.53178 1.38988 1.57083 1.42894L2.13652 0.863251C1.78505 0.511779 1.2152 0.511779 0.863726 0.863251L1.42941 1.42894ZM1.42941 1.57036C1.39036 1.53131 1.39036 1.46799 1.42941 1.42894L0.863726 0.863251C0.512254 1.21472 0.512254 1.78457 0.863726 2.13604L1.42941 1.57036ZM5.66288 5.80382L1.42941 1.57036L0.863726 2.13604L5.09719 6.36951L5.66288 5.80382ZM1.42941 10.603L5.66288 6.36951L5.09719 5.80382L0.863726 10.0373L1.42941 10.603Z" fill="#94A1AC"/>
</svg>
