<svg width="10" height="10" viewBox="0 0 10 10" fill="none" xmlns="http://www.w3.org/2000/svg">
<path fill-rule="evenodd" clip-rule="evenodd" d="M1.04651 8.38547C0.851249 8.58073 0.851249 8.89731 1.04651 9.09258C1.24177 9.28784 1.55836 9.28784 1.75362 9.09258L5.06968 5.77651L8.38575 9.09259C8.58102 9.28785 8.8976 9.28785 9.09286 9.09259C9.28812 8.89732 9.28812 8.58074 9.09286 8.38548L5.77679 5.06941L9.09286 1.75333C9.28812 1.55807 9.28812 1.24149 9.09286 1.04623C8.8976 0.850965 8.58102 0.850965 8.38575 1.04623L5.06968 4.3623L1.75362 1.04624C1.55836 0.850975 1.24177 0.850975 1.04651 1.04624C0.851249 1.2415 0.851249 1.55808 1.04651 1.75334L4.36257 5.06941L1.04651 8.38547Z" fill="#94A1AC"/>
</svg>
