<svg width="12" height="12" viewBox="0 0 12 12" fill="none" xmlns="http://www.w3.org/2000/svg">
<path d="M6 7.5C6.82843 7.5 7.5 6.82843 7.5 6C7.5 5.17157 6.82843 4.5 6 4.5C5.17157 4.5 4.5 5.17157 4.5 6C4.5 6.82843 5.17157 7.5 6 7.5Z" stroke="#778192" stroke-miterlimit="10" stroke-linecap="round" stroke-linejoin="round"/>
<path d="M1 6.43997V5.55997C1 5.03997 1.425 4.60997 1.95 4.60997C2.855 4.60997 3.225 3.96997 2.77 3.18497C2.51 2.73497 2.665 2.14997 3.12 1.88997L3.985 1.39497C4.38 1.15997 4.89 1.29997 5.125 1.69497L5.18 1.78997C5.63 2.57497 6.37 2.57497 6.825 1.78997L6.88 1.69497C7.115 1.29997 7.625 1.15997 8.02 1.39497L8.885 1.88997C9.34 2.14997 9.495 2.73497 9.235 3.18497C8.78 3.96997 9.15 4.60997 10.055 4.60997C10.575 4.60997 11.005 5.03497 11.005 5.55997V6.43997C11.005 6.95997 10.58 7.38997 10.055 7.38997C9.15 7.38997 8.78 8.02997 9.235 8.81497C9.495 9.26997 9.34 9.84997 8.885 10.11L8.02 10.605C7.625 10.84 7.115 10.7 6.88 10.305L6.825 10.21C6.375 9.42497 5.635 9.42497 5.18 10.21L5.125 10.305C4.89 10.7 4.38 10.84 3.985 10.605L3.12 10.11C2.665 9.84997 2.51 9.26497 2.77 8.81497C3.225 8.02997 2.855 7.38997 1.95 7.38997C1.425 7.38997 1 6.95997 1 6.43997Z" stroke="#778192" stroke-miterlimit="10" stroke-linecap="round" stroke-linejoin="round"/>
</svg>
