<svg width="12" height="12" viewBox="0 0 12 12" fill="none" xmlns="http://www.w3.org/2000/svg">
<path fill-rule="evenodd" clip-rule="evenodd" d="M8 0.875V1.5H10.625C10.8321 1.5 11 1.66789 11 1.875C11 2.08211 10.8321 2.25 10.625 2.25H1.375C1.16789 2.25 1 2.08211 1 1.875C1 1.66789 1.16789 1.5 1.375 1.5H4V0.875C4 0.391751 4.39175 0 4.875 0H7.125C7.60825 0 8 0.391751 8 0.875ZM4.75 0.875C4.75 0.805964 4.80596 0.75 4.875 0.75H7.125C7.19404 0.75 7.25 0.805964 7.25 0.875V1.5H4.75V0.875Z" fill="#55647D"/>
<path d="M2.49828 3.08887C2.47833 2.88273 2.29505 2.73179 2.08891 2.75174C1.88276 2.77169 1.73182 2.95497 1.75177 3.16112L2.45804 10.4593C2.50145 10.9078 2.87837 11.25 3.32898 11.25H8.67108C9.12168 11.25 9.49861 10.9078 9.54201 10.4593L10.2483 3.16112C10.2682 2.95497 10.1173 2.77169 9.91115 2.75174C9.705 2.73179 9.52172 2.88273 9.50177 3.08887L8.7955 10.387C8.7893 10.4511 8.73545 10.5 8.67108 10.5H3.32898C3.2646 10.5 3.21076 10.4511 3.20456 10.387L2.49828 3.08887Z" fill="#55647D"/>
<path d="M4.60299 3.75064C4.80974 3.73848 4.9872 3.89623 4.99936 4.10298L5.24936 8.35298C5.26153 8.55972 5.10378 8.73719 4.89703 8.74935C4.69028 8.76151 4.51282 8.60377 4.50066 8.39702L4.25066 4.14702C4.2385 3.94027 4.39624 3.7628 4.60299 3.75064Z" fill="#55647D"/>
<path d="M7.74936 4.14702C7.76153 3.94027 7.60378 3.7628 7.39703 3.75064C7.19028 3.73848 7.01282 3.89623 7.00066 4.10298L6.75066 8.35298C6.7385 8.55972 6.89624 8.73719 7.10299 8.74935C7.30974 8.76151 7.4872 8.60377 7.49936 8.39702L7.74936 4.14702Z" fill="#55647D"/>
</svg>
