<svg width="15" height="15" viewBox="0 0 15 15" fill="none" xmlns="http://www.w3.org/2000/svg">
<path d="M1 2.33333C1 1.59695 1.59695 1 2.33333 1H5C5.73638 1 6.33333 1.59695 6.33333 2.33333V5C6.33333 5.73638 5.73638 6.33333 5 6.33333H2.33333C1.59695 6.33333 1 5.73638 1 5V2.33333Z" stroke="white"/>
<path d="M14.3333 3.66667C14.3333 5.13943 13.1394 6.33333 11.6667 6.33333C10.1939 6.33333 9 5.13943 9 3.66667C9 2.19391 10.1939 1 11.6667 1C13.1394 1 14.3333 2.19391 14.3333 3.66667Z" stroke="white"/>
<path d="M6.33333 11.6667C6.33333 13.1394 5.13943 14.3333 3.66667 14.3333C2.19391 14.3333 1 13.1394 1 11.6667C1 10.1939 2.19391 9 3.66667 9C5.13943 9 6.33333 10.1939 6.33333 11.6667Z" stroke="white"/>
<path d="M9 10.3333C9 9.59695 9.59695 9 10.3333 9H13C13.7364 9 14.3333 9.59695 14.3333 10.3333V13C14.3333 13.7364 13.7364 14.3333 13 14.3333H10.3333C9.59695 14.3333 9 13.7364 9 13V10.3333Z" stroke="white"/>
</svg>
