<svg width="15" height="10" viewBox="0 0 15 10" fill="none" xmlns="http://www.w3.org/2000/svg">
<path d="M6.33333 1H10.3333M6.33333 6.33333H10.3333M6.33333 3.66667H14.3333M6.33333 9H14.3333M1.66667 3.66667H3C3.36819 3.66667 3.66667 3.36819 3.66667 3V1.66667C3.66667 1.29848 3.36819 1 3 1H1.66667C1.29848 1 1 1.29848 1 1.66667V3C1 3.36819 1.29848 3.66667 1.66667 3.66667ZM1.66667 9H3C3.36819 9 3.66667 8.70152 3.66667 8.33333V7C3.66667 6.63181 3.36819 6.33333 3 6.33333H1.66667C1.29848 6.33333 1 6.63181 1 7V8.33333C1 8.70152 1.29848 9 1.66667 9Z" stroke="#55647D" stroke-linecap="round"/>
</svg>
