<svg width="30" height="34" viewBox="0 0 30 34" fill="none" xmlns="http://www.w3.org/2000/svg">
<path opacity="0.2" d="M11.5359 1.28545C13.6795 0.0160143 16.3205 0.0160145 18.4641 1.28545L26.5359 6.06558C28.6795 7.33502 30 9.68104 30 12.2199V21.7802C30 24.319 28.6795 26.6651 26.5359 27.9345L18.4641 32.7146C16.3205 33.9841 13.6795 33.9841 11.5359 32.7146L3.4641 27.9345C1.32051 26.6651 0 24.319 0 21.7802V12.2199C0 9.68104 1.32051 7.33502 3.4641 6.06558L11.5359 1.28545Z" fill="#FF2020"/>
<path d="M16.7446 10.3617C16.7446 11.1137 16.135 11.7234 15.3829 11.7234C14.6309 11.7234 14.0212 11.1137 14.0212 10.3617C14.0212 9.60965 14.6309 9 15.3829 9C16.135 9 16.7446 9.60965 16.7446 10.3617Z" fill="#FF2020"/>
<path fill-rule="evenodd" clip-rule="evenodd" d="M13 14.4468C13 13.8828 13.4572 13.4255 14.0213 13.4255H15.383C15.947 13.4255 16.4042 13.8828 16.4042 14.4468V23.9787C16.4042 24.5427 15.947 25 15.383 25C14.8189 25 14.3617 24.5427 14.3617 23.9787V15.4681H14.0213C13.4572 15.4681 13 15.0108 13 14.4468Z" fill="#FF2020"/>
</svg>
